# xmcd
#
# Track frame offsets:
#	182
#	3672
#	21700
#	43302
#	62827
#	84137
#	87480
#	108110
#	132382
#	156735
#	182977
#	205292
#	224500
#	244085
#
# Disc length: 3583 seconds
#
# Revision: 0
# Processed by: cddbd v1.5.2PL0 Copyright (c) Steve Scherf et al.
# Submitted via: EZCDAudioConverter 1.3.4.1
#
DISCID=d30dfd0e
DTITLE=Voices In Control - The R&B Flavours Album 
DYEAR=1996
DGENRE=R&B
TTITLE0=Intro Cold World
TTITLE1=Slow Down Box
TTITLE2=Everything's Alright
TTITLE3=Can't Run
TTITLE4=Don't Make Me Wait
TTITLE5=Slow Jam: Interlude
TTITLE6=Do Me Right
TTITLE7=Love Won't Let Me Wait 
TTITLE8=Surrender
TTITLE9=Slow Jam Tonight
TTITLE10=For The Love Of You
TTITLE11=Out Of Luck
TTITLE12=That's What Love Can Do
TTITLE13=Callin' Up
EXTD=
EXTT0=
EXTT1=
EXTT2=
EXTT3=
EXTT4=
EXTT5=
EXTT6=
EXTT7=
EXTT8=
EXTT9=
EXTT10=
EXTT11=
EXTT12=
EXTT13=
PLAYORDER=
